<?xml version="1.0" encoding="utf-8"?>
<svg width="666.668" height="666.668" viewBox="0 0 666.668 666.668" fill="none" xmlns="http://www.w3.org/2000/svg">
  <g transform="matrix(-1 0 -0 -1 666.668 666.668)">
    <rect width="666.667" height="666.667" fill="#444444" fill-rule="evenodd" fill-opacity="0" />
    <g transform="matrix(1 0 0 -1 69.324 598.608)">
      <path d="M36 302.437C28.1333 300.704 24.2667 299.237 11.0667 292.704C4.93335 289.77 0 286.57 0 285.77C0 284.837 2 282.437 4.39999 280.17C6.79999 277.904 10.4 274.17 12.2667 271.904C12.2667 271.904 15.6 267.504 15.6 267.504C15.6 267.504 22.4 270.97 22.4 270.97C38 278.837 57.6 281.504 74.1334 277.77C101.467 271.77 119.2 254.97 126.133 228.837C128.533 219.904 128.533 219.77 125.6 210.837C121.333 197.904 115.333 190.304 105.2 185.237C100.667 182.97 95.2 181.104 93.2 181.104C91.2 181.104 85.7333 183.104 81.2 185.504C67.6 192.437 60.1334 204.97 64 214.304C65.7333 218.57 70.4 221.237 74.4 220.17C76.5334 219.637 79.0667 221.504 85.2 227.904C85.2 227.904 93.3333 236.437 93.3333 236.437C93.3333 236.437 89.7333 239.104 89.7333 239.104C84.4 243.104 78.8 244.837 71.3333 244.97C52.5334 245.237 37.3333 226.704 39.0667 205.637C41.2 178.837 70 154.837 96.6667 157.637C101.067 158.037 106.133 158.57 108 158.837C110.667 159.104 111.2 158.57 110.933 156.437C110.667 154.97 110.4 148.437 110.267 141.77C110.133 130.97 110.533 128.704 114.4 119.637C119.733 107.104 131.067 95.5038 143.333 89.7704C158.533 82.7038 176.267 85.3704 187.067 96.3038C193.733 102.97 196 108.97 196 119.904C196 127.504 195.333 130.17 192.667 134.437C190.8 137.37 188.8 139.77 188.267 139.77C187.733 139.77 183.733 136.17 179.333 131.77C172.8 125.237 171.467 122.97 171.733 119.904C172.267 115.237 166.933 110.437 161.067 110.437C152.133 110.437 138.8 121.77 136 131.637C131.467 148.17 138.267 161.37 156.133 170.304C170 177.237 185.6 175.104 202 164.037C220.667 151.37 231.067 130.704 231.067 105.904C231.067 76.3038 216.133 51.2371 189.6 36.0371C174.133 27.1038 169.067 25.7704 152.667 25.7704C140 25.9038 136.933 26.3038 129.733 29.3704C129.733 29.3704 121.6 32.8371 121.6 32.8371C121.6 32.8371 117.067 30.1705 117.067 30.1705C110.133 25.9038 101.333 18.3038 101.333 16.4371C101.333 14.4371 120.667 5.37044 130.533 2.70378C168.933 -7.5629 214.8 12.1704 239.067 48.9704C248.4 63.2371 252.267 73.3704 254.8 90.7038C259.333 121.504 250.267 151.637 230.4 172.037C225.067 177.504 217.333 184.037 213.333 186.57C203.733 192.837 188.133 198.437 177.733 199.37C169.2 200.17 154.8 198.037 150.533 195.37C146.933 193.104 146.267 194.837 148.667 200.57C152.133 208.837 152.667 224.304 150 235.104C142.4 265.504 119.2 289.637 87.3333 300.57C79.6 303.237 45.7333 304.437 36 302.437C36 302.437 36 302.437 36 302.437Z" fill="#375CAB" transform="translate(272.01 228.171)" />
      <path d="M9.21165 198.267C2.54498 184.667 0.0116577 172.933 0.0116577 154.667C-0.121674 139.067 0.811661 134 6.94499 118.267C11.2117 107.6 23.0783 90.6667 36.4117 76.6667C43.345 69.3333 50.2783 61.2 51.8783 58.6667C56.2783 51.3333 57.4783 42.4 56.2783 26C55.745 18 55.4783 11.0667 55.745 10.8C56.0116 10.5333 62.6783 11.0667 70.6783 11.8667C90.0116 13.8667 98.4116 11.8667 107.745 3.33334C109.745 1.46667 112.012 0 112.812 0C113.612 0.133331 118.145 3.60001 122.812 8C132.945 17.0667 133.078 16.6667 117.745 26.8C107.345 33.6 94.0117 38.6667 86.2783 38.6667C82.0117 38.6667 82.0117 38.6667 81.2117 46.5333C79.745 60.5333 73.2117 73.0667 60.4117 86.9333C31.0783 118.4 22.8117 135.733 24.6783 162.133C25.2117 168.933 26.545 175.733 28.2783 179.467C29.745 182.933 30.945 187.2 30.945 188.933C30.945 192.933 19.2117 208 16.145 208C14.945 208 12.145 204.133 9.21165 198.267C9.21165 198.267 9.21165 198.267 9.21165 198.267Z" fill="#375CAB" transform="translate(226.398 273.274)" />
      <path d="M90.6765 302.608C86.6765 302.074 80.6765 300.874 77.3431 300.074C70.0098 298.074 50.6765 288.608 45.8765 284.341C43.8765 282.608 41.8765 281.274 41.4765 281.274C39.8765 281.274 26.0098 267.541 21.7431 261.941C15.6098 253.674 6.27648 234.874 4.94315 227.941C4.54315 226.074 3.34315 221.141 2.14315 216.874C-3.05685 198.074 1.47648 169.941 12.8098 150.474C15.6098 145.808 18.6765 141.141 19.6098 140.208C20.5431 139.274 21.3431 137.808 21.3431 137.141C21.3431 136.341 22.0098 136.208 22.6765 136.608C23.4765 137.008 24.0098 136.874 24.0098 136.341C24.0098 134.874 32.9431 125.808 38.6765 121.274C55.3432 108.208 78.2765 102.874 98.5432 107.141C104.01 108.341 108.81 109.008 109.076 108.608C109.476 108.341 108.676 105.008 107.476 101.408C104.41 92.0743 104.676 73.141 107.876 63.8076C113.076 48.6076 118.543 40.0743 131.343 27.2743C156.943 1.67428 194.01 -6.59238 230.01 5.40762C240.276 8.87428 254.676 16.0743 254.676 17.941C254.676 18.6076 253.076 21.141 251.21 23.2743C249.343 25.541 246.01 29.2743 244.01 31.6743C244.01 31.6743 240.276 36.2076 240.276 36.2076C240.276 36.2076 235.21 33.541 235.21 33.541C224.276 28.0743 209.743 23.941 201.076 23.941C192.41 23.941 178.81 25.8076 174.01 27.8076C150.943 36.8743 134.943 53.6743 130.01 74.4743C127.743 83.4076 127.743 84.4743 129.876 92.341C133.076 104.208 140.543 114.341 149.476 119.008C155.743 122.341 157.743 122.741 164.81 122.208C171.343 121.674 174.41 120.608 179.476 117.141C183.076 114.741 186.143 112.341 186.41 111.808C186.676 111.274 187.876 109.541 189.343 107.941C192.276 104.474 193.876 96.2076 192.676 90.6076C191.61 85.8076 187.743 83.4076 182.543 84.4743C180.41 84.8743 178.676 84.741 178.676 84.0743C178.676 83.541 175.21 79.6743 171.076 75.541C171.076 75.541 163.476 68.0743 163.476 68.0743C163.476 68.0743 166.676 65.2743 166.676 65.2743C173.743 59.1409 190.943 58.341 200.01 63.8076C209.076 69.141 217.876 84.2076 217.61 93.9409C217.476 100.741 214.01 113.941 211.21 118.474C206.943 125.141 193.21 137.541 186.943 140.208C183.476 141.674 178.676 143.674 176.276 144.874C171.876 146.874 157.21 146.608 146.81 144.474C142.676 143.541 142.276 143.808 143.343 146.074C143.876 147.408 145.076 152.074 145.876 156.341C150.143 180.474 129.876 210.874 105.476 216.741C95.2098 219.141 91.2098 219.008 82.8098 215.941C68.5432 210.741 60.0098 199.141 60.0098 184.741C60.0098 177.408 63.7431 167.541 67.0765 166.208C68.1432 165.808 72.2765 168.474 76.5432 172.208C83.3431 178.341 84.0098 179.408 83.2098 182.874C82.1432 187.941 86.5432 192.874 92.9431 194.074C102.276 195.808 116.01 185.408 120.943 172.608C126.41 158.208 118.143 142.074 100.143 132.474C92.5432 128.474 78.6765 128.074 69.3432 131.541C57.6098 135.941 44.4098 145.941 38.0098 155.141C29.8765 166.874 30.5431 165.541 27.2098 176.608C25.3431 182.608 24.6765 188.474 24.8098 200.608C24.9431 215.408 25.2098 217.408 29.0765 226.474C31.3431 231.941 34.9431 238.741 36.9431 241.808C41.3432 248.341 57.0765 263.674 60.4098 264.741C61.6098 265.141 62.6765 265.941 62.6765 266.608C62.6765 267.141 63.7431 267.941 65.0765 268.474C66.2765 268.874 68.2765 269.808 69.3432 270.474C76.9432 275.541 93.2098 279.941 103.61 279.808C112.143 279.808 127.876 276.608 131.743 274.074C132.943 273.408 135.476 273.941 138.41 275.408C144.543 278.608 154.676 286.341 154.676 288.074C154.676 289.541 136.276 298.208 128.81 300.074C122.543 301.674 106.276 303.808 101.343 303.674C99.4765 303.541 94.6765 303.141 90.6765 302.608C90.6765 302.608 90.6765 302.608 90.6765 302.608Z" fill="#039892" />
      <path d="M8.26666 201.733C3.73334 197.467 0 193.6 0 193.2C0 191.6 5.86667 186.4 12.6667 182.133C22.5333 175.867 30.9333 172.667 39.8667 171.6C47.7333 170.8 47.8667 170.667 48.6667 165.733C49.0667 163.067 49.7333 158.667 50 156C50.4 151.6 51.6 148.533 56.2667 140.4C61.0667 131.867 64.1333 127.867 74 117.067C79.8667 110.667 85.0667 104.667 85.6 103.733C86.1333 102.8 88.2667 100.267 90.2667 98C92.4 95.8667 95.4667 91.0667 97.2 87.6C98.8 84 100.8 80.1333 101.333 78.9333C102.933 75.7333 105.333 63.2 105.867 54.2667C106.533 45.8667 104.267 34.2667 100.533 26C97.6 19.8667 98.9333 16.4 107.067 7.6C107.067 7.6 114.133 0 114.133 0C114.133 0 118.267 7.2 118.267 7.2C126.533 22 129.867 36.4 129.733 55.7333C129.6 67.6 128.933 72.4 126.133 80.5333C122.4 91.7333 114.533 107.467 110.667 111.067C110.267 111.467 107.333 115.2 104.133 119.467C100.933 123.6 96.2667 128.933 93.8667 131.067C91.3333 133.2 89.3333 135.6 89.3333 136.4C89.3333 137.067 88.4 137.733 87.3333 137.733C86.2667 137.733 84.5333 139.467 83.3333 141.6C82.2667 143.733 80.6667 146.267 79.6 147.333C78.6667 148.267 76.5333 152 74.8 155.733C71.7333 162.267 71.7333 162.8 73.2 179.6C74 189.067 74.4 197.2 74 197.467C73.6 197.867 66.8 197.467 58.6667 196.533C40.9333 194.533 33.2 196.133 23.0667 204.267C23.0667 204.267 16.5333 209.333 16.5333 209.333L8.26666 201.733C8.26666 201.733 8.26666 201.733 8.26666 201.733Z" fill="#039892" transform="translate(172.01 50.208)" />
    </g>
    <g transform="matrix(-0 -1 -1 0 598 594)">
      <path d="M36 302.437C28.1333 300.704 24.2667 299.237 11.0667 292.704C4.93335 289.77 0 286.57 0 285.77C0 284.837 2 282.437 4.39999 280.17C6.79999 277.904 10.4 274.17 12.2667 271.904C12.2667 271.904 15.6 267.504 15.6 267.504C15.6 267.504 22.4 270.97 22.4 270.97C38 278.837 57.6 281.504 74.1334 277.77C101.467 271.77 119.2 254.97 126.133 228.837C128.533 219.904 128.533 219.77 125.6 210.837C121.333 197.904 115.333 190.304 105.2 185.237C100.667 182.97 95.2 181.104 93.2 181.104C91.2 181.104 85.7333 183.104 81.2 185.504C67.6 192.437 60.1334 204.97 64 214.304C65.7333 218.57 70.4 221.237 74.4 220.17C76.5334 219.637 79.0667 221.504 85.2 227.904C85.2 227.904 93.3333 236.437 93.3333 236.437C93.3333 236.437 89.7333 239.104 89.7333 239.104C84.4 243.104 78.8 244.837 71.3333 244.97C52.5334 245.237 37.3333 226.704 39.0667 205.637C41.2 178.837 70 154.837 96.6667 157.637C101.067 158.037 106.133 158.57 108 158.837C110.667 159.104 111.2 158.57 110.933 156.437C110.667 154.97 110.4 148.437 110.267 141.77C110.133 130.97 110.533 128.704 114.4 119.637C119.733 107.104 131.067 95.5038 143.333 89.7704C158.533 82.7038 176.267 85.3704 187.067 96.3038C193.733 102.97 196 108.97 196 119.904C196 127.504 195.333 130.17 192.667 134.437C190.8 137.37 188.8 139.77 188.267 139.77C187.733 139.77 183.733 136.17 179.333 131.77C172.8 125.237 171.467 122.97 171.733 119.904C172.267 115.237 166.933 110.437 161.067 110.437C152.133 110.437 138.8 121.77 136 131.637C131.467 148.17 138.267 161.37 156.133 170.304C170 177.237 185.6 175.104 202 164.037C220.667 151.37 231.067 130.704 231.067 105.904C231.067 76.3038 216.133 51.2371 189.6 36.0371C174.133 27.1038 169.067 25.7704 152.667 25.7704C140 25.9038 136.933 26.3038 129.733 29.3704C129.733 29.3704 121.6 32.8371 121.6 32.8371C121.6 32.8371 117.067 30.1705 117.067 30.1705C110.133 25.9038 101.333 18.3038 101.333 16.4371C101.333 14.4371 120.667 5.37044 130.533 2.70378C168.933 -7.5629 214.8 12.1704 239.067 48.9704C248.4 63.2371 252.267 73.3704 254.8 90.7038C259.333 121.504 250.267 151.637 230.4 172.037C225.067 177.504 217.333 184.037 213.333 186.57C203.733 192.837 188.133 198.437 177.733 199.37C169.2 200.17 154.8 198.037 150.533 195.37C146.933 193.104 146.267 194.837 148.667 200.57C152.133 208.837 152.667 224.304 150 235.104C142.4 265.504 119.2 289.637 87.3333 300.57C79.6 303.237 45.7333 304.437 36 302.437C36 302.437 36 302.437 36 302.437Z" fill="#F97104" transform="translate(272.01 228.171)" />
      <path d="M9.21165 198.267C2.54498 184.667 0.0116577 172.933 0.0116577 154.667C-0.121674 139.067 0.811661 134 6.94499 118.267C11.2117 107.6 23.0783 90.6667 36.4117 76.6667C43.345 69.3333 50.2783 61.2 51.8783 58.6667C56.2783 51.3333 57.4783 42.4 56.2783 26C55.745 18 55.4783 11.0667 55.745 10.8C56.0117 10.5333 62.6783 11.0667 70.6783 11.8667C90.0117 13.8667 98.4117 11.8667 107.745 3.33334C109.745 1.46667 112.012 0 112.812 0C113.612 0.133331 118.145 3.60001 122.812 8C132.945 17.0667 133.078 16.6667 117.745 26.8C107.345 33.6 94.0117 38.6667 86.2783 38.6667C82.0117 38.6667 82.0117 38.6667 81.2116 46.5333C79.745 60.5333 73.2116 73.0667 60.4117 86.9333C31.0783 118.4 22.8117 135.733 24.6783 162.133C25.2117 168.933 26.545 175.733 28.2783 179.467C29.745 182.933 30.945 187.2 30.945 188.933C30.945 192.933 19.2117 208 16.145 208C14.945 208 12.145 204.133 9.21165 198.267C9.21165 198.267 9.21165 198.267 9.21165 198.267Z" fill="#FD6F00" transform="translate(226.398 273.274)" />
      <path d="M90.6765 302.608C86.6765 302.074 80.6765 300.874 77.3431 300.074C70.0098 298.074 50.6765 288.608 45.8765 284.341C43.8765 282.608 41.8765 281.274 41.4765 281.274C39.8765 281.274 26.0098 267.541 21.7431 261.941C15.6098 253.674 6.27648 234.874 4.94315 227.941C4.54315 226.074 3.34315 221.141 2.14315 216.874C-3.05685 198.074 1.47648 169.941 12.8098 150.474C15.6098 145.808 18.6765 141.141 19.6098 140.208C20.5431 139.274 21.3431 137.808 21.3431 137.141C21.3431 136.341 22.0098 136.208 22.6765 136.608C23.4765 137.008 24.0098 136.874 24.0098 136.341C24.0098 134.874 32.9431 125.808 38.6765 121.274C55.3432 108.208 78.2765 102.874 98.5432 107.141C104.01 108.341 108.81 109.008 109.076 108.608C109.476 108.341 108.676 105.008 107.476 101.408C104.41 92.0743 104.676 73.141 107.876 63.8076C113.076 48.6076 118.543 40.0743 131.343 27.2743C156.943 1.67428 194.01 -6.59238 230.01 5.40762C240.276 8.87428 254.676 16.0743 254.676 17.941C254.676 18.6076 253.076 21.141 251.21 23.2743C249.343 25.541 246.01 29.2743 244.01 31.6743C244.01 31.6743 240.276 36.2076 240.276 36.2076C240.276 36.2076 235.21 33.541 235.21 33.541C224.276 28.0743 209.743 23.941 201.076 23.941C192.41 23.941 178.81 25.8076 174.01 27.8076C150.943 36.8743 134.943 53.6743 130.01 74.4743C127.743 83.4076 127.743 84.4743 129.876 92.341C133.076 104.208 140.543 114.341 149.476 119.008C155.743 122.341 157.743 122.741 164.81 122.208C171.343 121.674 174.41 120.608 179.476 117.141C183.076 114.741 186.143 112.341 186.41 111.808C186.676 111.274 187.876 109.541 189.343 107.941C192.276 104.474 193.876 96.2076 192.676 90.6076C191.61 85.8076 187.743 83.4076 182.543 84.4743C180.41 84.8743 178.676 84.741 178.676 84.0743C178.676 83.541 175.21 79.6743 171.076 75.541C171.076 75.541 163.476 68.0743 163.476 68.0743C163.476 68.0743 166.676 65.2743 166.676 65.2743C173.743 59.1409 190.943 58.341 200.01 63.8076C209.076 69.141 217.876 84.2076 217.61 93.9409C217.476 100.741 214.01 113.941 211.21 118.474C206.943 125.141 193.21 137.541 186.943 140.208C183.476 141.674 178.676 143.674 176.276 144.874C171.876 146.874 157.21 146.608 146.81 144.474C142.676 143.541 142.276 143.808 143.343 146.074C143.876 147.408 145.076 152.074 145.876 156.341C150.143 180.474 129.876 210.874 105.476 216.741C95.2098 219.141 91.2098 219.008 82.8098 215.941C68.5432 210.741 60.0098 199.141 60.0098 184.741C60.0098 177.408 63.7431 167.541 67.0765 166.208C68.1432 165.808 72.2765 168.474 76.5432 172.208C83.3431 178.341 84.0098 179.408 83.2098 182.874C82.1432 187.941 86.5432 192.874 92.9431 194.074C102.276 195.808 116.01 185.408 120.943 172.608C126.41 158.208 118.143 142.074 100.143 132.474C92.5432 128.474 78.6765 128.074 69.3432 131.541C57.6098 135.941 44.4098 145.941 38.0098 155.141C29.8765 166.874 30.5431 165.541 27.2098 176.608C25.3431 182.608 24.6765 188.474 24.8098 200.608C24.9431 215.408 25.2098 217.408 29.0765 226.474C31.3431 231.941 34.9431 238.741 36.9431 241.808C41.3432 248.341 57.0765 263.674 60.4098 264.741C61.6098 265.141 62.6765 265.941 62.6765 266.608C62.6765 267.141 63.7431 267.941 65.0765 268.474C66.2765 268.874 68.2765 269.808 69.3432 270.474C76.9432 275.541 93.2098 279.941 103.61 279.808C112.143 279.808 127.876 276.608 131.743 274.074C132.943 273.408 135.476 273.941 138.41 275.408C144.543 278.608 154.676 286.341 154.676 288.074C154.676 289.541 136.276 298.208 128.81 300.074C122.543 301.674 106.276 303.808 101.343 303.674C99.4765 303.541 94.6765 303.141 90.6765 302.608C90.6765 302.608 90.6765 302.608 90.6765 302.608Z" fill="#F9B00A" />
      <path d="M8.26666 201.733C3.73334 197.467 0 193.6 0 193.2C0 191.6 5.86667 186.4 12.6667 182.133C22.5333 175.867 30.9333 172.667 39.8667 171.6C47.7333 170.8 47.8667 170.667 48.6667 165.733C49.0667 163.067 49.7333 158.667 50 156C50.4 151.6 51.6 148.533 56.2667 140.4C61.0667 131.867 64.1333 127.867 74 117.067C79.8667 110.667 85.0667 104.667 85.6 103.733C86.1333 102.8 88.2667 100.267 90.2667 98C92.4 95.8667 95.4667 91.0667 97.2 87.6C98.8 84 100.8 80.1333 101.333 78.9333C102.933 75.7333 105.333 63.2 105.867 54.2667C106.533 45.8667 104.267 34.2667 100.533 26C97.6 19.8667 98.9333 16.4 107.067 7.6C107.067 7.6 114.133 0 114.133 0C114.133 0 118.267 7.2 118.267 7.2C126.533 22 129.867 36.4 129.733 55.7333C129.6 67.6 128.933 72.4 126.133 80.5333C122.4 91.7333 114.533 107.467 110.667 111.067C110.267 111.467 107.333 115.2 104.133 119.467C100.933 123.6 96.2667 128.933 93.8667 131.067C91.3333 133.2 89.3333 135.6 89.3333 136.4C89.3333 137.067 88.4 137.733 87.3333 137.733C86.2667 137.733 84.5333 139.467 83.3333 141.6C82.2667 143.733 80.6667 146.267 79.6 147.333C78.6667 148.267 76.5333 152 74.8 155.733C71.7333 162.267 71.7333 162.8 73.2 179.6C74 189.067 74.4 197.2 74 197.467C73.6 197.867 66.8 197.467 58.6667 196.533C40.9333 194.533 33.2 196.133 23.0667 204.267C23.0667 204.267 16.5333 209.333 16.5333 209.333L8.26666 201.733C8.26666 201.733 8.26666 201.733 8.26666 201.733Z" fill="#FCAF00" transform="translate(172.01 50.208)" />
    </g>
  </g>
</svg>